# xmcd CD database file
#
# Track frame offsets:
#	150
#	12285
#	24825
#	37375
#	52039
#	65507
#	79685
#	94427
#	107502
#	120630
#	133920
#	147485
#	161722
#	175755
#	187340
#	199782
#	214070
#	228600
#	240150
#	255587
#	269610
#	283100
#	301517
#	314240
#	327357
#	339987
#
# Disc length: 4715 seconds
#
# Revision: 0
# Processed by: cddbd v1.5.1PL2 Copyright (c) Steve Scherf et al.
# Submitted via: CDex 1.51
#
DISCID=8a12691a
DTITLE=Charlie Parker - The Yardbird Sessions Disc 1
DYEAR=2005
DGENRE=Jazz
TTITLE0=Groovin' High
TTITLE1=All The Things You Are
TTITLE2=Dizzy Atmosphere
TTITLE3=Salt Peanuts
TTITLE4=Shaw 'Nuff
TTITLE5=Hot House
TTITLE6=Now's the Time
TTITLE7=Ko Ko
TTITLE8=Moose the Mooche
TTITLE9=Yardbird Suite
TTITLE10=Ornithology
TTITLE11=Cool Blues
TTITLE12=Relaxin' at Camarillo
TTITLE13=Donna Lee
TTITLE14=Chasing the Bird
TTITLE15=Dewey Square
TTITLE16=Bird of Pardise
TTITLE17=The Hymn
TTITLE18=Embraceable You
TTITLE19=Klactoveedsedstene
TTITLE20=Scrapple from the Apple
TTITLE21=Out of Nowhere
TTITLE22=Don't Blame Me
TTITLE23=Quasimodo
TTITLE24=Klaunstance
TTITLE25=Parker's Mood
EXTD=YEAR: 2005
EXTT0=
EXTT1=
EXTT2=
EXTT3=
EXTT4=
EXTT5=
EXTT6=
EXTT7=
EXTT8=
EXTT9=
EXTT10=
EXTT11=
EXTT12=
EXTT13=
EXTT14=
EXTT15=
EXTT16=
EXTT17=
EXTT18=
EXTT19=
EXTT20=
EXTT21=
EXTT22=
EXTT23=
EXTT24=
EXTT25=
PLAYORDER=
